# xmcd
#
# Track frame offsets:
#	150
#	20782
#	43710
#	63254
#	84167
#	107127
#	129611
#	147401
#
# Disc length: 2250 seconds
# Revision: 0
# Processed by: cddbd v1.5.2PL0 Copyright (c) Steve Scherf et al.
# Submitted via: dBpowerAMP V12.0
#
DISCID=6c08c808
DTITLE=Starpoint - Wanting You
DYEAR=1981
DGENRE=Soul
TTITLE0=Wanting You
TTITLE1=Do What You Wanna Do
TTITLE2=Angel
TTITLE3=Last Night
TTITLE4=Try Me
TTITLE5=Shake It Out
TTITLE6=Break Up To Make Up
TTITLE7=Starnite You Nite
EXTD=
EXTT0=
EXTT1=
EXTT2=
EXTT3=
EXTT4=
EXTT5=
EXTT6=
EXTT7=
PLAYORDER=
